HIERARCHY
ROOT Hips
{
    OFFSET 0.0 0.0 0.0
    CHANNELS 6 Xposition Yposition Zposition Zrotation Xrotation Yrotation
    JOINT Spine
    {
        OFFSET 0.0 23.657176004761826 0.0
        CHANNELS 3 Zrotation Xrotation Yrotation
        JOINT Chest
        {
            OFFSET 0.0 23.657176004761826 0.0
            CHANNELS 3 Zrotation Xrotation Yrotation
            JOINT Head
            {
                OFFSET 0.0 13.482827422510674 0.0
                CHANNELS 3 Zrotation Xrotation Yrotation
            }
            JOINT LeftUpperArm
            {
                OFFSET 14.24593978991181 0.0 0.0
                CHANNELS 3 Zrotation Xrotation Yrotation
                JOINT LeftLowerArm
                {
                    OFFSET 24.898279427019375 0.0 0.0
                    CHANNELS 3 Zrotation Xrotation Yrotation
                    JOINT LeftHand
                    {
                        OFFSET 20.76305321072573 0.0 0.0
                        CHANNELS 3 Zrotation Xrotation Yrotation
                    }
                    End Site
                    {
                    OFFSET 6.916601457034298 0.0 0.0
                    }
                }
            }
            JOINT RightUpperArm
            {
                OFFSET -14.24593978991181 0.0 0.0
                CHANNELS 3 Zrotation Xrotation Yrotation
                JOINT RightLowerArm
                {
                    OFFSET 24.898279427019375 0.0 0.0
                    CHANNELS 3 Zrotation Xrotation Yrotation
                    JOINT RightHand
                    {
                        OFFSET 20.76305321072573 0.0 0.0
                        CHANNELS 3 Zrotation Xrotation Yrotation
                    }
                    End Site
                    {
                    OFFSET 6.916601457034298 0.0 0.0
                    }
                }
            }
        }
    }
    JOINT LeftUpperLeg
    {
        OFFSET 9.373615421607497 0.0 0.0
        CHANNELS 3 Zrotation Xrotation Yrotation
        JOINT LeftLowerLeg
        {
            OFFSET 35.43780887428284 0.0 0.0
            CHANNELS 3 Zrotation Xrotation Yrotation
            JOINT LeftFootAnkle
            {
                OFFSET 37.631257404589036 0.0 0.0
                CHANNELS 3 Zrotation Xrotation Yrotation
                End Site
                {
                OFFSET 8.471991328548343 0.0 0.0
                }
            }
        }
    }
    JOINT RightUpperLeg
    {
        OFFSET -9.373615421607497 0.0 0.0
        CHANNELS 3 Zrotation Xrotation Yrotation
        JOINT RightLowerLeg
        {
            OFFSET 35.43780887428284 0.0 0.0
            CHANNELS 3 Zrotation Xrotation Yrotation
            JOINT RightFootAnkle
            {
                OFFSET 37.631257404589036 0.0 0.0
                CHANNELS 3 Zrotation Xrotation Yrotation
                End Site
                {
                OFFSET 8.471991328548343 0.0 0.0
                }
            }
        }
    }
}
MOTION
Frames: 4
Frame Time: 0.03333333333333333
-0.1379413873366353 -0.23374051498649878 0.07271909104708485 -2.32295287681524 5.90152356131936 15.033319525669203 -2.2875446202288425 1.7939040922780258 -11.677645726903648 -1.8685950456452367 2.2445989159964923 -11.748949882999202 15.26036705648873 29.955159985983514 13.81447078354295 98.42214584356478 -57.66323908821208 153.33511792269036 -5.472603055258757 48.389264468718046 7.302055486853624 -2.2599922073319436 -22.26462936074085 -25.986183536022985 95.3017740683498 -42.137917147454495 -165.9434322567597 -145.75913958355915 65.39625465588793 143.1811287868369 62.533746677183736 -61.976848284608266 -11.900486184303638 -155.95819159077737 -69.55187218979054 -67.71705070004595 -155.423767285587 -44.07228036677766 180.0 -135.6095425792167 42.98037964796486 180.0 -166.49630488741 -83.31810910547873 -79.61961028441469 -158.90821420264515 -7.473031870408042 180.0 -117.40575044753194 28.086093808909204 180.0
-0.14231713198469523 -0.2403130792998849 0.037946132451936176 -0.27069917617308564 -1.806850899074212 14.903393220374014 -4.146120685340806 1.5577621474304753 -10.77894910339895 -3.769433047292448 2.3483797017936996 -10.872268721170466 16.985686229088714 37.134160960525804 11.223142474371711 -62.47830746205687 48.40359947598787 12.309556233351723 163.93354441562434 -61.706042814063586 161.88822292048266 -23.98119414428871 -24.269157513576115 -32.39262568427758 86.91111161014601 -33.082971498808774 -175.11532282474172 -156.00147644557464 53.45519575958327 151.00705756722272 23.297542380892924 -60.36069426442532 -59.71530876071517 -149.69296523386043 -76.47434245734111 -61.446071958356754 -154.16885514177443 -45.41247292298443 180.0 -136.80454972774692 44.98796032910047 180.0 85.00659768974887 -87.70507636325121 170.60576069126506 -157.7704845292183 -14.771007227353335 180.0 -112.42592801558305 4.274964393150679 180.0
-0.14441637382827918 -0.24277738940011867 0.022060833379967153 0.9919720671166252 -6.6753543598196545 14.733501568987926 -6.167019312295069 1.621516643345391 -10.078608554127891 -5.76772955310767 2.7565943471582295 -10.205802265889682 20.060211769827962 41.457046332205444 9.66459171972835 123.90091948616907 62.301385469366515 -172.88995750264507 161.69367071742877 -31.80526747004628 147.88181265237944 -68.72310721370813 -23.450534821973385 -78.1156939672156 92.28109773425986 -29.821805298999838 -173.4941040068751 -153.69797658685522 51.450172346990755 147.70665773781337 -1.869025699051185 5.61279006225312 -88.80027816335054 -142.28514707474017 -79.4789775178719 -53.73499907093778 -152.8303168648701 -48.68794399370547 180.0 -138.40870148920888 47.938989026278726 180.0 33.81543843440658 -85.68412218296355 118.10972187569517 -156.8533008032935 -20.04301644016464 180.0 -112.83442642606303 -23.462439221890065 180.0
-0.14538216944250879 -0.24176699282626818 0.01802374374170207 1.3167075682810545 -7.91332194045808 14.802707033073837 -6.981766011891086 1.7720892461763393 -9.944901484509856 -6.543074706987834 3.0634363477284015 -10.100393846471993 20.36296282090237 44.95104815145753 9.91352287680155 129.61978038140865 55.83222398201137 -178.89854301604763 144.44964141735397 -15.476588127904963 110.47601819297975 -68.74981997648842 -24.54991646819892 -89.26033382272117 93.92136004700423 -26.70828876817252 -174.50101749897473 -146.40421133139745 28.46914803113875 125.6626068961682 30.6504746364815 27.64798628605009 -95.45624846297243 -132.80925241265365 -79.37452078293197 -44.513895242048875 -152.49103674519833 -47.27746893832472 180.0 -139.621894097473 51.01475574763775 180.0 60.337958523499104 -84.75356997957462 143.68086686712294 -153.908030272337 -24.436793676581686 180.0 -111.20834407909874 -25.278141289742102 180.0
